<svg width="20" height="20" viewBox="0 0 20 20" fill="none" xmlns="http://www.w3.org/2000/svg">
<path d="M16.9531 10.6543L10.4707 3.18362C10.4121 3.11602 10.3397 3.0618 10.2583 3.02465C10.1769 2.98749 10.0885 2.96826 9.99902 2.96826C9.90956 2.96826 9.82114 2.98749 9.73976 3.02465C9.65838 3.0618 9.58594 3.11602 9.52734 3.18362L3.04687 10.6543C3.02729 10.6768 3.01459 10.7045 3.01029 10.734C3.00599 10.7636 3.01027 10.7937 3.02262 10.8209C3.03497 10.8481 3.05487 10.8711 3.07994 10.8873C3.10502 10.9035 3.13422 10.9121 3.16406 10.9121H4.74609C4.83593 10.9121 4.92187 10.8731 4.98242 10.8047L9.25781 5.87698V16.875C9.25781 16.961 9.32812 17.0313 9.41406 17.0313H10.5859C10.6719 17.0313 10.7422 16.961 10.7422 16.875V5.87698L15.0176 10.8047C15.0762 10.8731 15.1621 10.9121 15.2539 10.9121H16.8359C16.9687 10.9121 17.041 10.7559 16.9531 10.6543Z" fill="#F8F8F8"/>
</svg>
